<mxfile host="Electron" modified="2024-05-15T09:56:48.322Z" agent="Mozilla/5.0 (Windows NT 10.0; Win64; x64) AppleWebKit/537.36 (KHTML, like Gecko) draw.io/24.1.0 Chrome/120.0.6099.109 Electron/28.1.0 Safari/537.36" etag="361KmmqFSKvxeG0K-aZ0" version="24.1.0" type="device">
  <diagram name="Page-1" id="7e0a89b8-554c-2b80-1dc8-d5c74ca68de4">
    <mxGraphModel dx="2800" dy="1430" grid="1" gridSize="10" guides="1" tooltips="1" connect="1" arrows="1" fold="1" page="1" pageScale="1" pageWidth="1100" pageHeight="850" background="none" math="0" shadow="0">
      <root>
        <mxCell id="0" />
        <mxCell id="1" parent="0" />
        <mxCell id="vOGGidffWLcL1Gw-ql8o-4" value="" style="edgeStyle=orthogonalEdgeStyle;rounded=0;orthogonalLoop=1;jettySize=auto;html=1;" parent="1" source="vOGGidffWLcL1Gw-ql8o-1" target="vOGGidffWLcL1Gw-ql8o-3" edge="1">
          <mxGeometry relative="1" as="geometry" />
        </mxCell>
        <mxCell id="vOGGidffWLcL1Gw-ql8o-1" value="" style="ellipse;whiteSpace=wrap;html=1;aspect=fixed;" parent="1" vertex="1">
          <mxGeometry x="145" y="150" width="30" height="30" as="geometry" />
        </mxCell>
        <mxCell id="vOGGidffWLcL1Gw-ql8o-6" value="" style="edgeStyle=orthogonalEdgeStyle;rounded=0;orthogonalLoop=1;jettySize=auto;html=1;" parent="1" source="vOGGidffWLcL1Gw-ql8o-3" target="vOGGidffWLcL1Gw-ql8o-5" edge="1">
          <mxGeometry relative="1" as="geometry" />
        </mxCell>
        <mxCell id="vOGGidffWLcL1Gw-ql8o-3" value="initialiaze UART peripheral PA2 and PA3" style="whiteSpace=wrap;html=1;" parent="1" vertex="1">
          <mxGeometry x="100" y="230" width="120" height="60" as="geometry" />
        </mxCell>
        <mxCell id="vOGGidffWLcL1Gw-ql8o-8" value="" style="edgeStyle=orthogonalEdgeStyle;rounded=0;orthogonalLoop=1;jettySize=auto;html=1;" parent="1" source="vOGGidffWLcL1Gw-ql8o-5" target="vOGGidffWLcL1Gw-ql8o-7" edge="1">
          <mxGeometry relative="1" as="geometry" />
        </mxCell>
        <mxCell id="vOGGidffWLcL1Gw-ql8o-5" value="Enable interrupts&amp;nbsp;" style="whiteSpace=wrap;html=1;" parent="1" vertex="1">
          <mxGeometry x="100" y="330" width="120" height="50" as="geometry" />
        </mxCell>
        <mxCell id="vOGGidffWLcL1Gw-ql8o-10" value="" style="edgeStyle=orthogonalEdgeStyle;rounded=0;orthogonalLoop=1;jettySize=auto;html=1;" parent="1" source="vOGGidffWLcL1Gw-ql8o-7" target="vOGGidffWLcL1Gw-ql8o-9" edge="1">
          <mxGeometry relative="1" as="geometry" />
        </mxCell>
        <mxCell id="vOGGidffWLcL1Gw-ql8o-7" value="Initialise bytecount = 0&lt;div&gt;Run program&lt;/div&gt;" style="whiteSpace=wrap;html=1;" parent="1" vertex="1">
          <mxGeometry x="300" y="325" width="120" height="60" as="geometry" />
        </mxCell>
        <mxCell id="vOGGidffWLcL1Gw-ql8o-12" value="" style="edgeStyle=orthogonalEdgeStyle;rounded=0;orthogonalLoop=1;jettySize=auto;html=1;" parent="1" source="vOGGidffWLcL1Gw-ql8o-9" edge="1">
          <mxGeometry relative="1" as="geometry">
            <mxPoint x="560" y="425" as="targetPoint" />
          </mxGeometry>
        </mxCell>
        <mxCell id="vOGGidffWLcL1Gw-ql8o-9" value="system idle" style="whiteSpace=wrap;html=1;" parent="1" vertex="1">
          <mxGeometry x="500" y="325" width="120" height="60" as="geometry" />
        </mxCell>
        <mxCell id="vOGGidffWLcL1Gw-ql8o-17" value="" style="edgeStyle=orthogonalEdgeStyle;rounded=0;orthogonalLoop=1;jettySize=auto;html=1;" parent="1" source="vOGGidffWLcL1Gw-ql8o-13" target="vOGGidffWLcL1Gw-ql8o-16" edge="1">
          <mxGeometry relative="1" as="geometry" />
        </mxCell>
        <mxCell id="vOGGidffWLcL1Gw-ql8o-18" value="TRUE" style="edgeLabel;html=1;align=center;verticalAlign=middle;resizable=0;points=[];" parent="vOGGidffWLcL1Gw-ql8o-17" vertex="1" connectable="0">
          <mxGeometry x="-0.3111" y="1" relative="1" as="geometry">
            <mxPoint as="offset" />
          </mxGeometry>
        </mxCell>
        <mxCell id="vOGGidffWLcL1Gw-ql8o-13" value="Message rcvd" style="rhombus;whiteSpace=wrap;html=1;" parent="1" vertex="1">
          <mxGeometry x="520" y="425" width="80" height="80" as="geometry" />
        </mxCell>
        <mxCell id="vOGGidffWLcL1Gw-ql8o-14" value="" style="endArrow=classic;html=1;rounded=0;exitX=1;exitY=0.5;exitDx=0;exitDy=0;entryX=1;entryY=0.5;entryDx=0;entryDy=0;" parent="1" source="vOGGidffWLcL1Gw-ql8o-13" target="vOGGidffWLcL1Gw-ql8o-9" edge="1">
          <mxGeometry width="50" height="50" relative="1" as="geometry">
            <mxPoint x="610" y="460" as="sourcePoint" />
            <mxPoint x="710" y="300" as="targetPoint" />
            <Array as="points">
              <mxPoint x="680" y="465" />
              <mxPoint x="680" y="355" />
            </Array>
          </mxGeometry>
        </mxCell>
        <mxCell id="vOGGidffWLcL1Gw-ql8o-15" value="FALSE" style="edgeLabel;html=1;align=center;verticalAlign=middle;resizable=0;points=[];" parent="vOGGidffWLcL1Gw-ql8o-14" vertex="1" connectable="0">
          <mxGeometry x="0.048" y="-3" relative="1" as="geometry">
            <mxPoint as="offset" />
          </mxGeometry>
        </mxCell>
        <mxCell id="vOGGidffWLcL1Gw-ql8o-20" value="" style="edgeStyle=orthogonalEdgeStyle;rounded=0;orthogonalLoop=1;jettySize=auto;html=1;" parent="1" source="vOGGidffWLcL1Gw-ql8o-16" target="vOGGidffWLcL1Gw-ql8o-19" edge="1">
          <mxGeometry relative="1" as="geometry" />
        </mxCell>
        <mxCell id="vOGGidffWLcL1Gw-ql8o-16" value="RxCpltCallBack called" style="whiteSpace=wrap;html=1;" parent="1" vertex="1">
          <mxGeometry x="500" y="550" width="120" height="60" as="geometry" />
        </mxCell>
        <mxCell id="vOGGidffWLcL1Gw-ql8o-22" value="" style="edgeStyle=orthogonalEdgeStyle;rounded=0;orthogonalLoop=1;jettySize=auto;html=1;" parent="1" source="vOGGidffWLcL1Gw-ql8o-19" edge="1">
          <mxGeometry relative="1" as="geometry">
            <mxPoint x="560" y="750" as="targetPoint" />
          </mxGeometry>
        </mxCell>
        <mxCell id="vOGGidffWLcL1Gw-ql8o-19" value="Recv messg - byte, by byte , increment bytecount" style="whiteSpace=wrap;html=1;" parent="1" vertex="1">
          <mxGeometry x="500" y="650" width="120" height="60" as="geometry" />
        </mxCell>
        <mxCell id="vOGGidffWLcL1Gw-ql8o-25" value="" style="edgeStyle=orthogonalEdgeStyle;rounded=0;orthogonalLoop=1;jettySize=auto;html=1;" parent="1" source="vOGGidffWLcL1Gw-ql8o-23" target="vOGGidffWLcL1Gw-ql8o-24" edge="1">
          <mxGeometry relative="1" as="geometry" />
        </mxCell>
        <mxCell id="vOGGidffWLcL1Gw-ql8o-26" value="FALSE" style="edgeLabel;html=1;align=center;verticalAlign=middle;resizable=0;points=[];" parent="vOGGidffWLcL1Gw-ql8o-25" vertex="1" connectable="0">
          <mxGeometry x="-0.1647" y="2" relative="1" as="geometry">
            <mxPoint as="offset" />
          </mxGeometry>
        </mxCell>
        <mxCell id="vOGGidffWLcL1Gw-ql8o-28" value="" style="edgeStyle=orthogonalEdgeStyle;rounded=0;orthogonalLoop=1;jettySize=auto;html=1;" parent="1" source="vOGGidffWLcL1Gw-ql8o-23" target="vOGGidffWLcL1Gw-ql8o-27" edge="1">
          <mxGeometry relative="1" as="geometry" />
        </mxCell>
        <mxCell id="vOGGidffWLcL1Gw-ql8o-30" value="TRUE" style="edgeLabel;html=1;align=center;verticalAlign=middle;resizable=0;points=[];" parent="vOGGidffWLcL1Gw-ql8o-28" vertex="1" connectable="0">
          <mxGeometry x="-0.2667" y="-1" relative="1" as="geometry">
            <mxPoint as="offset" />
          </mxGeometry>
        </mxCell>
        <mxCell id="vOGGidffWLcL1Gw-ql8o-23" value="7 bytes rcvd" style="rhombus;whiteSpace=wrap;html=1;" parent="1" vertex="1">
          <mxGeometry x="520" y="750" width="80" height="80" as="geometry" />
        </mxCell>
        <mxCell id="vOGGidffWLcL1Gw-ql8o-24" value="Invalid msg, ignore messae - return invalid string via UART" style="whiteSpace=wrap;html=1;" parent="1" vertex="1">
          <mxGeometry x="340" y="760" width="120" height="60" as="geometry" />
        </mxCell>
        <mxCell id="wq_KzEewOQI-o1iVDcvh-3" value="" style="edgeStyle=orthogonalEdgeStyle;rounded=0;orthogonalLoop=1;jettySize=auto;html=1;" edge="1" parent="1" source="vOGGidffWLcL1Gw-ql8o-27" target="wq_KzEewOQI-o1iVDcvh-2">
          <mxGeometry relative="1" as="geometry" />
        </mxCell>
        <mxCell id="vOGGidffWLcL1Gw-ql8o-27" value="update the system state accordingly-&amp;gt;&lt;div&gt;Measurement/Calibration sequence&lt;/div&gt;" style="whiteSpace=wrap;html=1;" parent="1" vertex="1">
          <mxGeometry x="660" y="760" width="140" height="60" as="geometry" />
        </mxCell>
        <mxCell id="wq_KzEewOQI-o1iVDcvh-1" value="UART RECV" style="text;strokeColor=none;fillColor=none;html=1;fontSize=24;fontStyle=1;verticalAlign=middle;align=center;" vertex="1" parent="1">
          <mxGeometry x="240" y="470" width="100" height="40" as="geometry" />
        </mxCell>
        <mxCell id="wq_KzEewOQI-o1iVDcvh-2" value="" style="ellipse;whiteSpace=wrap;html=1;" vertex="1" parent="1">
          <mxGeometry x="880" y="780" width="20" height="20" as="geometry" />
        </mxCell>
        <mxCell id="wq_KzEewOQI-o1iVDcvh-8" value="" style="edgeStyle=orthogonalEdgeStyle;rounded=0;orthogonalLoop=1;jettySize=auto;html=1;" edge="1" parent="1" source="wq_KzEewOQI-o1iVDcvh-4" target="wq_KzEewOQI-o1iVDcvh-7">
          <mxGeometry relative="1" as="geometry" />
        </mxCell>
        <mxCell id="wq_KzEewOQI-o1iVDcvh-4" value="" style="ellipse;whiteSpace=wrap;html=1;aspect=fixed;" vertex="1" parent="1">
          <mxGeometry x="1570" y="160" width="30" height="30" as="geometry" />
        </mxCell>
        <mxCell id="wq_KzEewOQI-o1iVDcvh-10" value="" style="edgeStyle=orthogonalEdgeStyle;rounded=0;orthogonalLoop=1;jettySize=auto;html=1;" edge="1" parent="1" source="wq_KzEewOQI-o1iVDcvh-7">
          <mxGeometry relative="1" as="geometry">
            <mxPoint x="1585" y="395" as="targetPoint" />
          </mxGeometry>
        </mxCell>
        <mxCell id="wq_KzEewOQI-o1iVDcvh-7" value="default system state" style="rounded=1;whiteSpace=wrap;html=1;" vertex="1" parent="1">
          <mxGeometry x="1525" y="255" width="120" height="60" as="geometry" />
        </mxCell>
        <mxCell id="wq_KzEewOQI-o1iVDcvh-14" value="" style="edgeStyle=orthogonalEdgeStyle;rounded=0;orthogonalLoop=1;jettySize=auto;html=1;" edge="1" parent="1" source="wq_KzEewOQI-o1iVDcvh-12" target="wq_KzEewOQI-o1iVDcvh-13">
          <mxGeometry relative="1" as="geometry" />
        </mxCell>
        <mxCell id="wq_KzEewOQI-o1iVDcvh-12" value="&lt;font style=&quot;font-size: 8px;&quot;&gt;Button Press 2/ 2nd of the same tupe of UART command sent, or end&lt;/font&gt;&lt;div&gt;&lt;font style=&quot;font-size: 8px;&quot;&gt;of calibration sequence&lt;/font&gt;&lt;/div&gt;" style="rhombus;whiteSpace=wrap;html=1;" vertex="1" parent="1">
          <mxGeometry x="1513.75" y="400" width="142.5" height="160" as="geometry" />
        </mxCell>
        <mxCell id="wq_KzEewOQI-o1iVDcvh-16" value="" style="edgeStyle=orthogonalEdgeStyle;rounded=0;orthogonalLoop=1;jettySize=auto;html=1;" edge="1" parent="1" source="wq_KzEewOQI-o1iVDcvh-13" target="wq_KzEewOQI-o1iVDcvh-15">
          <mxGeometry relative="1" as="geometry" />
        </mxCell>
        <mxCell id="wq_KzEewOQI-o1iVDcvh-13" value="Write data to string" style="rounded=1;whiteSpace=wrap;html=1;" vertex="1" parent="1">
          <mxGeometry x="1525" y="600" width="120" height="60" as="geometry" />
        </mxCell>
        <mxCell id="wq_KzEewOQI-o1iVDcvh-15" value="Transmit data over UART, in specified format" style="whiteSpace=wrap;html=1;rounded=1;" vertex="1" parent="1">
          <mxGeometry x="1525" y="740" width="120" height="60" as="geometry" />
        </mxCell>
        <mxCell id="wq_KzEewOQI-o1iVDcvh-17" value="UART Tranmit" style="text;strokeColor=none;fillColor=none;html=1;fontSize=24;fontStyle=1;verticalAlign=middle;align=center;" vertex="1" parent="1">
          <mxGeometry x="1360" y="445" width="100" height="40" as="geometry" />
        </mxCell>
      </root>
    </mxGraphModel>
  </diagram>
</mxfile>
